<?xml version="1.0" encoding="UTF-8"?>
<svg id="Camada_2" xmlns="http://www.w3.org/2000/svg" viewBox="0 0 84.56 65.77">
  <defs>
    <style>
      .cls-1 {
        fill: #3a0da5;
      }

      .cls-2 {
        fill: #6121ff;
      }
    </style>
  </defs>
  <g id="DESIGNED_BY_FREEPIK">
    <g>
      <path class="cls-2" d="M56.71,64.08c-3.66,0-6.78-1.01-8.75-1.86l-1.39-.6c-6.74-2.91-14.38-6.2-21.71-6.2-2.03,0-3.99.26-5.82.76-.7.19-1.42.29-2.14.29-2.67,0-5.04-1.3-6.34-3.48-1.71-2.88-1.26-6.54,1.1-8.9.87-.87,1.95-1.51,3.14-1.85,3.17-.91,6.46-1.4,9.79-1.45L3.93,20.14c-1.47-1.47-2.27-3.43-2.24-5.52.03-2.08.88-4.02,2.4-5.45,1.38-1.3,3.21-2.01,5.14-2.01,2.11,0,4.17.86,5.67,2.35l11.16,11.16c.3-1.55,1.08-2.96,2.26-4.07,1.38-1.3,3.21-2.01,5.14-2.01.7,0,1.39.09,2.06.27h0c.03-2.09.88-4.03,2.4-5.46,1.38-1.3,3.21-2.02,5.14-2.02.99,0,1.98.19,2.9.55.29-1.66,1.14-3.21,2.47-4.38,1.36-1.2,3.12-1.86,4.96-1.86,2.1,0,4.16.86,5.65,2.35l16.86,16.86c2.67,2.67,13.56,18.84,1.04,31.37l-5.06,5.06c-4.48,4.48-9.59,6.75-15.19,6.75,0,0,0,0,0,0Z"/>
      <path class="cls-1" d="M53.41,3.39c1.61,0,3.24.64,4.45,1.85l3.59,3.59,12.29,12.29.97.97c2.49,2.49,12.53,17.47,1.04,28.96l-5.06,5.06c-4.82,4.82-9.78,6.25-13.99,6.25-3.3,0-6.14-.88-8.08-1.72-7.31-3.14-15.58-6.94-23.78-6.94-2.1,0-4.19.25-6.27.82-.56.15-1.13.23-1.69.23-1.96,0-3.85-.92-4.88-2.65-1.35-2.27-.93-5.06.84-6.84.67-.67,1.5-1.15,2.41-1.42,3.23-.93,6.58-1.39,9.93-1.39,1.23,0,2.45.06,3.67.19L5.13,18.94c-2.36-2.36-2.32-6.22.13-8.53,1.11-1.05,2.54-1.55,3.98-1.55,1.62,0,3.25.64,4.47,1.86l15.65,15.65c-2.36-2.36-2.32-6.22.13-8.53,1.11-1.05,2.54-1.55,3.98-1.55,1.62,0,3.25.64,4.47,1.86l1.02,1.02c-2.36-2.36-2.32-6.22.13-8.53,1.11-1.05,2.54-1.55,3.98-1.55,1.62,0,3.25.64,4.47,1.86l.37.37c-.8-2.21-.26-4.8,1.65-6.49,1.1-.97,2.46-1.43,3.84-1.43M53.41,0c-2.26,0-4.42.81-6.09,2.28-1.14,1-1.98,2.23-2.51,3.57-.57-.11-1.15-.16-1.73-.16-2.37,0-4.61.88-6.31,2.48-1.38,1.3-2.31,2.94-2.71,4.74-.19-.01-.39-.02-.58-.02-2.37,0-4.61.88-6.31,2.48-.71.67-1.3,1.42-1.76,2.24l-9.3-9.3c-1.81-1.81-4.32-2.85-6.87-2.85-2.37,0-4.61.88-6.31,2.48C1.08,9.69.04,12.05,0,14.6c-.04,2.55.93,4.94,2.73,6.74l18,18c-2.17.24-4.31.67-6.41,1.27-1.46.42-2.8,1.21-3.87,2.28-2.91,2.91-3.47,7.42-1.36,10.97,1.6,2.7,4.52,4.31,7.8,4.31.88,0,1.75-.12,2.59-.35,1.68-.46,3.48-.7,5.36-.7,6.98,0,14.45,3.22,21.04,6.06l1.4.6c2.12.91,5.47,1.99,9.42,1.99,6.07,0,11.58-2.44,16.39-7.25l5.06-5.06c5.71-5.71,7.66-13.01,5.62-21.09-1.49-5.91-4.8-10.82-6.66-12.68l-.97-.97-12.29-12.29-3.59-3.59c-1.81-1.81-4.31-2.85-6.85-2.85h0Z"/>
    </g>
  </g>
</svg>