<?xml version="1.0" encoding="UTF-8"?>
<svg id="Camada_2" xmlns="http://www.w3.org/2000/svg" viewBox="0 0 70.76 70.76">
  <defs>
    <style>
      .cls-1 {
        fill: #3a0da5;
      }

      .cls-2 {
        fill: #6121ff;
      }
    </style>
  </defs>
  <g id="DESIGNED_BY_FREEPIK">
    <g>
      <path class="cls-2" d="M29.52,69.06c-.87,0-1.64-.52-1.97-1.33L1.86,4.63c-.27-.66-.19-1.4.2-1.99.4-.59,1.05-.94,1.76-.94.28,0,.54.05.8.16l63.12,25.7c.84.34,1.37,1.17,1.32,2.08-.05.9-.66,1.68-1.53,1.93l-27.96,8.26-8.01,27.7c-.27.92-1.09,1.53-2.04,1.53h0Z"/>
      <path class="cls-1" d="M3.82,3.39c.05,0,.11.01.16.03l63.12,25.7c.38.15.35.69-.04.81l-28.85,8.53-8.27,28.6c-.06.2-.24.31-.41.31-.16,0-.32-.09-.4-.27L3.43,3.98c-.12-.3.11-.59.39-.59M3.82,0C2.55,0,1.36.63.65,1.69-.06,2.75-.2,4.08.28,5.26l25.7,63.12c.59,1.45,1.98,2.38,3.54,2.38,1.72,0,3.19-1.11,3.67-2.76l7.75-26.81,27.07-8c1.54-.45,2.65-1.84,2.74-3.47.09-1.62-.87-3.13-2.37-3.74L5.26.28c-.46-.19-.95-.28-1.44-.28h0Z"/>
    </g>
  </g>
</svg>